<svg width="348" height="46" viewBox="0 0 348 46" fill="none" xmlns="http://www.w3.org/2000/svg">
<rect x="2" y="5" width="36" height="36" rx="18" stroke="#FFAD0F" stroke-width="4"/>
<path d="M12.704 33V30.62C18.332 25.58 21.664 21.688 21.664 18.496C21.664 16.396 20.544 15.136 18.556 15.136C17.044 15.136 15.812 16.116 14.748 17.264L12.508 15.024C14.412 12.98 16.26 11.888 19.088 11.888C23.008 11.888 25.612 14.408 25.612 18.272C25.612 22.024 22.504 26.056 18.724 29.752C19.76 29.64 21.132 29.528 22.112 29.528H26.592V33H12.704Z" fill="#FFAD0F"/>
<path d="M63.872 16.328H61.408V28.072H63.872V16.328ZM67.296 12.68V31.784H61.408V34.344H57.92V12.68H67.296ZM70.976 20.904V17.128H68V13.608H70.976V10.216H74.624V13.608H76.576V17.128H74.624V20.904H70.976ZM75.36 25.576H72.288V28.648H75.36V25.576ZM82.048 28.648V25.576H78.848V28.648H82.048ZM78.848 35.048H82.048V31.848H78.848V35.048ZM72.288 35.048H75.36V31.848H72.288V35.048ZM68.768 39.816V22.216H85.76V39.624H82.048V38.408H72.288V39.816H68.768ZM83.168 13.64H86.976V17.16H83.168V20.904H79.52V17.16H77.6V13.64H79.52V10.216H83.168V13.64ZM117.184 15.624V19.464H90.944V15.624H102.56C102.24 14.184 101.6 12.072 101.024 10.504L104.832 9.544C105.504 11.144 106.208 13.256 106.56 14.632L103.136 15.624H117.184ZM101.664 32.904L97.568 33.96C97.216 30.536 96 25.288 94.912 21.32L98.752 20.392C99.968 24.424 101.12 29.48 101.664 32.904ZM109.312 34.728H118.528V38.6H89.504V34.728H105.184C106.784 30.824 108.48 25 109.312 20.488L113.632 21.32C112.416 25.96 110.752 31.016 109.312 34.728ZM134.208 24.616L136.512 23.432C137.408 24.776 138.272 26.632 138.624 27.816L136.192 29.16C135.872 27.944 135.008 26.024 134.208 24.616ZM145.504 29.48L146.656 31.72V22.504H142.752V19.368H147.84C145.664 17.992 143.744 16.232 142.208 14.376C140.736 16.232 139.008 17.928 137.216 19.368H142.048V24.488L144.256 23.368C145.12 24.712 145.984 26.536 146.368 27.752L143.872 29.096C143.584 27.944 142.816 26.152 142.048 24.776V32.36C143.04 31.56 144.288 30.536 145.504 29.48ZM137.664 29.8L138.88 32.232V22.504H134.944V20.936L134.848 21C134.624 20.584 134.144 19.816 133.696 19.112V29.544H129.76V31.304H134.304V32.648C135.264 31.848 136.48 30.824 137.664 29.8ZM125.344 25.064V26.728H130.272V25.064H125.344ZM125.344 20.776V22.44H130.272V20.776H125.344ZM141.376 9.64L144.608 10.696C144.448 10.984 144.288 11.272 144.128 11.56C145.76 13.768 148.512 15.848 151.328 16.904C150.784 17.768 150.208 19.368 149.952 20.392V36.072C149.952 37.704 149.696 38.6 148.704 39.176C147.712 39.752 146.336 39.784 144.448 39.784C144.32 38.824 143.904 37.384 143.488 36.456C144.608 36.52 145.792 36.52 146.144 36.52C146.528 36.52 146.656 36.392 146.656 36.04V32.296C145.408 33.416 144.032 34.664 142.72 35.752L142.048 34.6V36.2C142.048 37.736 141.824 38.632 140.864 39.176C139.904 39.72 138.592 39.784 136.768 39.784C136.64 38.856 136.256 37.448 135.872 36.584C136.928 36.616 138.048 36.616 138.4 36.616C138.752 36.616 138.88 36.52 138.88 36.136V32.52C137.568 33.704 136.128 35.016 134.752 36.168L133.92 34.696H129.76V39.752H126.048V34.696H121.088V31.304H126.048V29.544H122.08V17.96H126.048V16.2H121.28V12.872H126.048V9.896H129.76V12.872H134.368V16.2H129.76V17.96H132.832L132.8 17.928C136.256 16.104 139.552 13.032 141.376 9.64Z" fill="#FFAD0F"/>
<path fill-rule="evenodd" clip-rule="evenodd" d="M175.017 14C178.908 14 181.056 17.6064 182.215 21.6584C183.373 17.6064 185.522 14 189.412 14C195.429 14 197.029 29.6137 196.191 37.611H192.383C192.916 31.5178 191.545 18.7222 188.955 18.9507C187.432 19.103 185.375 23.2921 183.852 32.6603L183.846 32.655C183.771 33.5116 183.052 34.1836 182.176 34.1836C181.251 34.1836 180.501 33.4334 180.501 32.508C180.501 32.4326 180.506 32.3585 180.515 32.2857C178.999 23.1803 176.977 19.101 175.474 18.9507C172.885 18.7222 171.437 31.5178 172.047 37.611H168.238C167.325 29.6137 168.924 14 175.017 14ZM200.347 37.6108V21.8054H205.291V37.6108H200.347ZM202.819 19.6109C201.152 19.6109 200.069 18.6109 200.069 17.0554C200.069 15.5276 201.152 14.5276 202.819 14.5276C204.458 14.5276 205.569 15.5276 205.569 17.0554C205.569 18.6109 204.458 19.6109 202.819 19.6109ZM208.577 33.1945C208.577 35.8333 210.354 38 213.271 38C215.021 38 216.493 37.1944 217.799 36.0278H217.938L218.271 37.6111H222.299V28.6389C222.299 23.6945 219.993 21.4168 215.91 21.4168C213.438 21.4168 211.188 22.2501 209.104 23.5001L210.827 26.7501C212.41 25.8612 213.716 25.3612 214.965 25.3612C216.577 25.3612 217.243 26.1112 217.354 27.3889C211.188 28.0556 208.577 29.8612 208.577 33.1945ZM217.354 32.9167C216.632 33.6945 215.965 34.1667 214.965 34.1667C213.938 34.1667 213.271 33.7222 213.271 32.8056C213.271 31.6945 214.271 30.7778 217.354 30.3889V32.9167ZM225.228 29.6945C225.228 34.9445 228.951 38 232.978 38C236.978 38 240.7 34.9445 240.7 29.6945C240.7 24.4723 236.978 21.4168 232.978 21.4168C228.951 21.4168 225.228 24.4723 225.228 29.6945ZM235.645 29.6945C235.645 32.3334 234.812 34 232.978 34C231.117 34 230.284 32.3334 230.284 29.6945C230.284 27.0834 231.117 25.4167 232.978 25.4167C234.812 25.4167 235.645 27.0834 235.645 29.6945ZM179.892 33.1172C176.921 33.7265 174.408 35.0975 172.885 36.9254L173.798 34.4882C174.103 33.1172 173.342 31.8224 172.885 31.2893C173.722 30.5276 174.712 30.8323 175.093 31.0608L174.255 28.2427C176.312 28.0142 178.368 30.4515 179.511 32.3556L179.892 33.1172ZM190.479 34.4882C190.174 33.1172 190.936 31.7462 191.393 31.2893C190.631 30.5276 189.641 30.8323 189.184 31.0608L190.022 28.2427C188.041 28.0142 185.985 30.4515 184.766 32.3556L184.385 33.1172C187.356 33.7265 189.869 35.1736 191.393 36.9254L190.479 34.4882Z" fill="#FFAD0F"/>
<path fill-rule="evenodd" clip-rule="evenodd" d="M273.278 37.6021V21.4413H278.333V37.6021H273.278ZM275.806 19.1976C274.101 19.1976 272.994 18.1751 272.994 16.5846C272.994 15.0225 274.101 14 275.806 14C277.481 14 278.617 15.0225 278.617 16.5846C278.617 18.1751 277.481 19.1976 275.806 19.1976ZM293.673 37.6024V16.4429H298.757V24.5091H305.716V16.4429H310.771V37.6024H305.716V28.9114H298.757V37.6024H293.673ZM314.56 33.0864C314.56 35.7846 316.378 38 319.36 38C321.149 38 322.655 37.1763 323.99 35.9835H324.132L324.472 37.6024H328.591V28.4285C328.591 23.373 326.233 21.044 322.058 21.044C319.53 21.044 317.23 21.8961 315.1 23.1741L316.861 26.4972C318.48 25.5883 319.814 25.0771 321.093 25.0771C322.74 25.0771 323.422 25.8439 323.535 27.1504C317.23 27.8321 314.56 29.6782 314.56 33.0864ZM323.535 32.8024C322.797 33.5977 322.115 34.0805 321.093 34.0805C320.042 34.0805 319.36 33.6261 319.36 32.6888C319.36 31.5527 320.383 30.6155 323.535 30.2178V32.8024ZM332.494 21.4416V37.6024H337.55V26.8096C338.516 25.8723 339.197 25.3611 340.333 25.3611C341.611 25.3611 342.208 25.9859 342.208 28.2297V37.6024H347.263V27.6049C347.263 23.5718 345.758 21.044 342.236 21.044C340.049 21.044 338.402 22.1517 337.067 23.4582H336.982L336.613 21.4416H332.494ZM281.778 27.6047V31.1549H289.816V27.6047H281.778ZM256.701 16.4429V37.6024H270.021V33.3421H261.785V16.4429H256.701Z" fill="#FFAD0F"/>
</svg>
