<svg width="349" height="46" viewBox="0 0 349 46" fill="none" xmlns="http://www.w3.org/2000/svg">
<rect x="2.5" y="5" width="36" height="36" rx="18" stroke="#F9F8F7" stroke-width="4"/>
<path d="M13.204 33V30.62C18.832 25.58 22.164 21.688 22.164 18.496C22.164 16.396 21.044 15.136 19.056 15.136C17.544 15.136 16.312 16.116 15.248 17.264L13.008 15.024C14.912 12.98 16.76 11.888 19.588 11.888C23.508 11.888 26.112 14.408 26.112 18.272C26.112 22.024 23.004 26.056 19.224 29.752C20.26 29.64 21.632 29.528 22.612 29.528H27.092V33H13.204Z" fill="#F9F8F7"/>
<path d="M64.372 16.328H61.908V28.072H64.372V16.328ZM67.796 12.68V31.784H61.908V34.344H58.42V12.68H67.796ZM71.476 20.904V17.128H68.5V13.608H71.476V10.216H75.124V13.608H77.076V17.128H75.124V20.904H71.476ZM75.86 25.576H72.788V28.648H75.86V25.576ZM82.548 28.648V25.576H79.348V28.648H82.548ZM79.348 35.048H82.548V31.848H79.348V35.048ZM72.788 35.048H75.86V31.848H72.788V35.048ZM69.268 39.816V22.216H86.26V39.624H82.548V38.408H72.788V39.816H69.268ZM83.668 13.64H87.476V17.16H83.668V20.904H80.02V17.16H78.1V13.64H80.02V10.216H83.668V13.64ZM117.684 15.624V19.464H91.444V15.624H103.06C102.74 14.184 102.1 12.072 101.524 10.504L105.332 9.544C106.004 11.144 106.708 13.256 107.06 14.632L103.636 15.624H117.684ZM102.164 32.904L98.068 33.96C97.716 30.536 96.5 25.288 95.412 21.32L99.252 20.392C100.468 24.424 101.62 29.48 102.164 32.904ZM109.812 34.728H119.028V38.6H90.004V34.728H105.684C107.284 30.824 108.98 25 109.812 20.488L114.132 21.32C112.916 25.96 111.252 31.016 109.812 34.728ZM134.708 24.616L137.012 23.432C137.908 24.776 138.772 26.632 139.124 27.816L136.692 29.16C136.372 27.944 135.508 26.024 134.708 24.616ZM146.004 29.48L147.156 31.72V22.504H143.252V19.368H148.34C146.164 17.992 144.244 16.232 142.708 14.376C141.236 16.232 139.508 17.928 137.716 19.368H142.548V24.488L144.756 23.368C145.62 24.712 146.484 26.536 146.868 27.752L144.372 29.096C144.084 27.944 143.316 26.152 142.548 24.776V32.36C143.54 31.56 144.788 30.536 146.004 29.48ZM138.164 29.8L139.38 32.232V22.504H135.444V20.936L135.348 21C135.124 20.584 134.644 19.816 134.196 19.112V29.544H130.26V31.304H134.804V32.648C135.764 31.848 136.98 30.824 138.164 29.8ZM125.844 25.064V26.728H130.772V25.064H125.844ZM125.844 20.776V22.44H130.772V20.776H125.844ZM141.876 9.64L145.108 10.696C144.948 10.984 144.788 11.272 144.628 11.56C146.26 13.768 149.012 15.848 151.828 16.904C151.284 17.768 150.708 19.368 150.452 20.392V36.072C150.452 37.704 150.196 38.6 149.204 39.176C148.212 39.752 146.836 39.784 144.948 39.784C144.82 38.824 144.404 37.384 143.988 36.456C145.108 36.52 146.292 36.52 146.644 36.52C147.028 36.52 147.156 36.392 147.156 36.04V32.296C145.908 33.416 144.532 34.664 143.22 35.752L142.548 34.6V36.2C142.548 37.736 142.324 38.632 141.364 39.176C140.404 39.72 139.092 39.784 137.268 39.784C137.14 38.856 136.756 37.448 136.372 36.584C137.428 36.616 138.548 36.616 138.9 36.616C139.252 36.616 139.38 36.52 139.38 36.136V32.52C138.068 33.704 136.628 35.016 135.252 36.168L134.42 34.696H130.26V39.752H126.548V34.696H121.588V31.304H126.548V29.544H122.58V17.96H126.548V16.2H121.78V12.872H126.548V9.896H130.26V12.872H134.868V16.2H130.26V17.96H133.332L133.3 17.928C136.756 16.104 140.052 13.032 141.876 9.64Z" fill="#F9F8F7"/>
<path fill-rule="evenodd" clip-rule="evenodd" d="M175.517 14C179.408 14 181.556 17.6064 182.715 21.6584C183.873 17.6064 186.022 14 189.912 14C195.929 14 197.529 29.6137 196.691 37.611H192.883C193.416 31.5178 192.045 18.7222 189.455 18.9507C187.932 19.103 185.875 23.2921 184.352 32.6603L184.346 32.655C184.271 33.5116 183.552 34.1836 182.676 34.1836C181.751 34.1836 181.001 33.4334 181.001 32.508C181.001 32.4326 181.006 32.3585 181.015 32.2857C179.499 23.1803 177.477 19.101 175.974 18.9507C173.385 18.7222 171.937 31.5178 172.547 37.611H168.738C167.825 29.6137 169.424 14 175.517 14ZM200.847 37.6108V21.8054H205.791V37.6108H200.847ZM203.319 19.6109C201.652 19.6109 200.569 18.6109 200.569 17.0554C200.569 15.5276 201.652 14.5276 203.319 14.5276C204.958 14.5276 206.069 15.5276 206.069 17.0554C206.069 18.6109 204.958 19.6109 203.319 19.6109ZM209.077 33.1945C209.077 35.8333 210.854 38 213.771 38C215.521 38 216.993 37.1944 218.299 36.0278H218.438L218.771 37.6111H222.799V28.6389C222.799 23.6945 220.493 21.4168 216.41 21.4168C213.938 21.4168 211.688 22.2501 209.604 23.5001L211.327 26.7501C212.91 25.8612 214.216 25.3612 215.465 25.3612C217.077 25.3612 217.743 26.1112 217.854 27.3889C211.688 28.0556 209.077 29.8612 209.077 33.1945ZM217.854 32.9167C217.132 33.6945 216.465 34.1667 215.465 34.1667C214.438 34.1667 213.771 33.7222 213.771 32.8056C213.771 31.6945 214.771 30.7778 217.854 30.3889V32.9167ZM225.728 29.6945C225.728 34.9445 229.451 38 233.478 38C237.478 38 241.2 34.9445 241.2 29.6945C241.2 24.4723 237.478 21.4168 233.478 21.4168C229.451 21.4168 225.728 24.4723 225.728 29.6945ZM236.145 29.6945C236.145 32.3334 235.312 34 233.478 34C231.617 34 230.784 32.3334 230.784 29.6945C230.784 27.0834 231.617 25.4167 233.478 25.4167C235.312 25.4167 236.145 27.0834 236.145 29.6945ZM180.392 33.1172C177.421 33.7265 174.908 35.0975 173.385 36.9254L174.298 34.4882C174.603 33.1172 173.842 31.8224 173.385 31.2893C174.222 30.5276 175.212 30.8323 175.593 31.0608L174.755 28.2427C176.812 28.0142 178.868 30.4515 180.011 32.3556L180.392 33.1172ZM190.979 34.4882C190.674 33.1172 191.436 31.7462 191.893 31.2893C191.131 30.5276 190.141 30.8323 189.684 31.0608L190.522 28.2427C188.541 28.0142 186.485 30.4515 185.266 32.3556L184.885 33.1172C187.856 33.7265 190.369 35.1736 191.893 36.9254L190.979 34.4882Z" fill="#F9F8F7"/>
<path fill-rule="evenodd" clip-rule="evenodd" d="M273.777 37.6021V21.4413H278.833V37.6021H273.777ZM276.305 19.1976C274.601 19.1976 273.493 18.1751 273.493 16.5846C273.493 15.0225 274.601 14 276.305 14C277.981 14 279.117 15.0225 279.117 16.5846C279.117 18.1751 277.981 19.1976 276.305 19.1976ZM294.173 37.6024V16.4429H299.257V24.5091H306.215V16.4429H311.271V37.6024H306.215V28.9114H299.257V37.6024H294.173ZM315.06 33.0864C315.06 35.7846 316.878 38 319.86 38C321.649 38 323.154 37.1763 324.489 35.9835H324.631L324.972 37.6024H329.09V28.4285C329.09 23.373 326.733 21.044 322.558 21.044C320.03 21.044 317.73 21.8961 315.599 23.1741L317.36 26.4972C318.979 25.5883 320.314 25.0771 321.592 25.0771C323.24 25.0771 323.921 25.8439 324.035 27.1504C317.73 27.8321 315.06 29.6782 315.06 33.0864ZM324.035 32.8024C323.296 33.5977 322.615 34.0805 321.592 34.0805C320.541 34.0805 319.86 33.6261 319.86 32.6888C319.86 31.5527 320.882 30.6155 324.035 30.2178V32.8024ZM332.994 21.4416V37.6024H338.05V26.8096C339.015 25.8723 339.697 25.3611 340.833 25.3611C342.111 25.3611 342.708 25.9859 342.708 28.2297V37.6024H347.763V27.6049C347.763 23.5718 346.258 21.044 342.736 21.044C340.549 21.044 338.902 22.1517 337.567 23.4582H337.482L337.112 21.4416H332.994ZM282.278 27.6047V31.1549H290.315V27.6047H282.278ZM257.2 16.4429V37.6024H270.521V33.3421H262.284V16.4429H257.2Z" fill="#F9F8F7"/>
</svg>
